<?xml version="1.0" encoding="UTF-8"?><svg id="Camada_2" xmlns="http://www.w3.org/2000/svg" xmlns:xlink="http://www.w3.org/1999/xlink" viewBox="0 0 86.77 87.39"><defs><style>.cls-1{fill:#fff;}.cls-2{fill:url(#Gradiente_sem_nome_42);}.cls-3{fill:none;stroke:#1e8bb0;}</style><linearGradient id="Gradiente_sem_nome_42" x1="-517.55" y1="584.27" x2="-518.37" y2="584.24" gradientTransform="translate(64805.81 73076.09) scale(125 -125)" gradientUnits="userSpaceOnUse"><stop offset="0" stop-color="#0b3b4b"/><stop offset="1" stop-color="#50d7e2"/></linearGradient></defs><g id="Camada_1-2"><circle id="Elipse_21" class="cls-2" cx="44.27" cy="44.89" r="42.5"/><path id="Caminho_43" class="cls-1" d="m35.91,59.09s-.1,0-.14-.01c-.15,0-.25.01-.35.26-.2.57-.31,1.18-.33,1.78-.04.5-.1,1-.2,1.49-.6,2.56-2.83,4.4-5.45,4.52h-.08c-1.79-.11-3.46-.89-4.69-2.19-.33-.31-2.24-2.21-2.19-4.77.12-2.62,1.96-4.84,4.52-5.45.49-.1.99-.16,1.5-.2.61-.02,1.21-.13,1.78-.33.16-.07.3-.13.25-.49l-8.46-8.46,8.7-8.7c.03-.16-.07-.32-.23-.35-.55-.19-1.13-.3-1.71-.32-.49-.03-.97-.1-1.45-.19-2.49-.58-4.29-2.75-4.41-5.3.28-3.59,3.11-6.46,6.7-6.78h.08c2.55.12,4.72,1.92,5.31,4.41.09.48.16.96.19,1.44.02.59.13,1.17.32,1.72.1.22.16.23.31.23h.04l8.9-8.91,8.98,8.98.07.31c.33,1.18-.27,2.42-1.41,2.88-.73.28-1.5.44-2.28.47-.38.03-.75.07-1.13.14-1.4.35-2.41,1.57-2.51,3.01.09,1.09.57,2.1,1.37,2.85l.08.08c.74.78,1.74,1.27,2.81,1.37,1.45-.08,2.69-1.1,3.05-2.51.07-.38.12-.76.14-1.14.03-.78.19-1.55.47-2.27.36-.91,1.25-1.5,2.22-1.48.22,0,.45.03.66.07l.31.07,9.57,9.58-9.91,9.91-.35.05c-.16.03-.32.04-.48.04-.96.02-1.84-.57-2.19-1.46-.27-.71-.43-1.47-.46-2.23-.03-.37-.07-.73-.14-1.1-.34-1.35-1.52-2.33-2.91-2.43h0c-1.05.09-2.03.56-2.75,1.32l-.04.04-.04.04c-.77.72-1.24,1.7-1.32,2.75.09,1.39,1.07,2.57,2.42,2.91.36.07.73.12,1.1.14.77.03,1.52.19,2.24.46,1.06.43,1.66,1.55,1.42,2.67l-.06.35-9.27,9.27-8.55-8.55Z"/><circle class="cls-3" cx="42.81" cy="42.81" r="42.31"/></g></svg>