<?xml version="1.0" encoding="UTF-8"?><svg id="Camada_2" xmlns="http://www.w3.org/2000/svg" xmlns:xlink="http://www.w3.org/1999/xlink" viewBox="0 0 87.49 87.3"><defs><style>.cls-1{fill:#fff;}.cls-2{fill:url(#Gradiente_sem_nome_42);}.cls-3{fill:none;stroke:#1e8bb0;}</style><linearGradient id="Gradiente_sem_nome_42" x1="-318.52" y1="483.47" x2="-319.34" y2="483.44" gradientTransform="translate(39928.05 60476.32) scale(125 -125)" gradientUnits="userSpaceOnUse"><stop offset="0" stop-color="#0b3b4b"/><stop offset="1" stop-color="#50d7e2"/></linearGradient></defs><g id="Camada_1-2"><circle id="Elipse_21" class="cls-2" cx="44.99" cy="44.8" r="42.5"/><path class="cls-1" d="m44.78,35.13c10.85,0,20.6,6.25,25.81,10.33-5.18,4.16-14.9,10.54-25.81,10.54s-20.59-6.39-25.79-10.55c5.21-4.08,14.95-10.32,25.79-10.32m0-5c-18.43,0-33.36,15.28-33.36,15.28,0,0,14.94,15.59,33.36,15.59s33.36-15.59,33.36-15.59c0,0-14.94-15.28-33.36-15.28h0Z"/><path class="cls-1" d="m44.97,33.41c-6.34,0-11.47,5.13-11.47,11.47s5.13,11.48,11.47,11.48,11.48-5.14,11.48-11.48-5.14-11.47-11.48-11.47Zm0,16.89c-3,0-5.42-2.43-5.42-5.42s2.43-5.42,5.42-5.42,5.42,2.43,5.42,5.42-2.43,5.42-5.42,5.42Z"/><circle class="cls-1" cx="50.88" cy="38.98" r="5.82"/><circle class="cls-3" cx="42.81" cy="42.81" r="42.31"/></g></svg>