<?xml version="1.0" encoding="UTF-8"?><svg id="Camada_2" xmlns="http://www.w3.org/2000/svg" xmlns:xlink="http://www.w3.org/1999/xlink" viewBox="0 0 87.63 87.44"><defs><style>.cls-1{fill:#fff;}.cls-2{fill:url(#Gradiente_sem_nome_42);}.cls-3{fill:none;stroke:#1e8bb0;}</style><linearGradient id="Gradiente_sem_nome_42" x1="-516.92" y1="483.47" x2="-517.74" y2="483.44" gradientTransform="translate(64728.05 60476.32) scale(125 -125)" gradientUnits="userSpaceOnUse"><stop offset="0" stop-color="#0b3b4b"/><stop offset="1" stop-color="#50d7e2"/></linearGradient></defs><g id="Camada_1-2"><circle id="Elipse_21" class="cls-2" cx="45.13" cy="44.94" r="42.5"/><g id="Grupo_275"><path id="Subtração_24" class="cls-1" d="m33.6,52.07h0c-2.66-1.38-4.85-3.52-6.3-6.14l11.78-22.17c1.45,2.62,3.64,4.76,6.3,6.14,2.91,1.55,6.14,2.24,9.27,2.92.99.21,1.93.42,2.85.64,2.53.45,4.98,1.26,7.28,2.4,2.89,1.41,5.04,3.98,5.92,7.07l-11.78,22.17c-.88-3.09-3.03-5.66-5.92-7.07-2.3-1.14-4.75-1.95-7.28-2.4-.93-.23-1.86-.43-2.85-.64-3.13-.67-6.36-1.37-9.27-2.92Zm-.02-16.17l-2.79,5.26c1.11,1.76,2.58,3.26,4.32,4.39l-2.99,5.62.07.05c.11.08.22.15.34.22.3.19.62.37.95.55,1.28.67,2.61,1.21,3.99,1.62l2.99-5.63c-1.38-.42-2.72-.96-4.01-1.63-.47-.25-.93-.52-1.36-.8l2.79-5.26c-1.74-1.14-3.21-2.63-4.32-4.39Zm22.66,16.6c.47.25.93.52,1.35.8l-2.99,5.63c1.74,1.13,3.21,2.63,4.32,4.39l2.99-5.63c-1.11-1.76-2.58-3.26-4.32-4.39l2.79-5.26c-.43-.28-.88-.55-1.35-.8-1.28-.67-2.62-1.21-4.01-1.63l2.79-5.26c-1.89-.59-3.91-1.02-5.86-1.44h-.02s2.99-5.64,2.99-5.64h-.03c-1.94-.42-3.96-.86-5.85-1.45l-2.99,5.63c1.9.59,3.93,1.03,5.88,1.45l-2.79,5.26h-.03c-1.95-.42-3.96-.86-5.85-1.45l2.79-5.26c-1.38-.42-2.72-.96-4.01-1.63-.47-.25-.93-.52-1.36-.8l2.99-5.63c-1.74-1.14-3.21-2.63-4.32-4.39l-2.99,5.63c1.11,1.76,2.58,3.26,4.32,4.39l-2.79,5.26c.43.28.88.55,1.36.8,1.28.67,2.62,1.21,4.01,1.63l-2.79,5.26c1.89.59,3.91,1.02,5.87,1.44h.02s-2.79,5.26-2.79,5.26h.03c1.95.42,3.96.86,5.86,1.45l2.79-5.26c-1.9-.59-3.92-1.03-5.88-1.45h0s2.79-5.26,2.79-5.26h0c1.95.42,3.98.86,5.88,1.45l-2.79,5.26c1.38.41,2.73.96,4.01,1.63h0Zm4.15-4.46c1.74,1.14,3.21,2.63,4.32,4.39l2.79-5.26c-1.11-1.76-2.58-3.26-4.32-4.39l2.99-5.63c-.43-.28-.88-.55-1.36-.8-1.28-.67-2.62-1.21-4.01-1.63l-2.99,5.63c1.38.42,2.72.96,4.01,1.63.47.25.93.52,1.36.8l-2.8,5.26Z"/><path id="Caminho_321" class="cls-1" d="m71.6,42.42c-.94-3.31-3.24-6.07-6.34-7.58-2.36-1.18-4.88-2.01-7.47-2.47-.94-.23-1.93-.44-2.88-.65-3.07-.66-6.24-1.34-9.05-2.83-2.38-1.24-4.36-3.12-5.73-5.43l.42-.79c.22-.41.06-.92-.35-1.14s-.92-.06-1.14.35h0l-20.08,37.8c-.22.41-.06.92.35,1.14s.92.06,1.14-.35l6.97-13.13c1.49,2.19,3.5,3.98,5.85,5.21,3.02,1.6,6.31,2.31,9.49,2.99.99.21,1.92.41,2.87.64,2.45.44,4.82,1.22,7.05,2.32,2.69,1.3,4.69,3.69,5.51,6.56.13.45.59.7,1.04.57.22-.06.4-.21.51-.41l11.78-22.18c.1-.19.12-.42.06-.62m-12.45,20.37c-1.18-2.51-3.18-4.54-5.67-5.77-2.36-1.18-4.88-2.01-7.47-2.47-.94-.23-1.88-.43-2.88-.65-3.07-.66-6.25-1.34-9.06-2.83-2.38-1.24-4.37-3.11-5.73-5.42l10.88-20.49c1.49,2.19,3.5,3.98,5.85,5.2,3.02,1.6,6.31,2.31,9.49,2.99.99.21,1.92.41,2.87.64,2.45.44,4.82,1.22,7.05,2.32,2.58,1.25,4.54,3.51,5.41,6.24l-10.74,20.23Z"/></g><circle class="cls-3" cx="42.81" cy="42.81" r="42.31"/></g></svg>