<?xml version="1.0" encoding="UTF-8"?><svg id="Camada_2" xmlns="http://www.w3.org/2000/svg" xmlns:xlink="http://www.w3.org/1999/xlink" viewBox="0 0 86.86 87.39"><defs><style>.cls-1{fill:#fff;}.cls-2{fill:url(#Gradiente_sem_nome_42);}.cls-3{fill:none;stroke:#1e8bb0;}</style><linearGradient id="Gradiente_sem_nome_42" x1="-418.35" y1="584.27" x2="-419.17" y2="584.24" gradientTransform="translate(52405.81 73076.09) scale(125 -125)" gradientUnits="userSpaceOnUse"><stop offset="0" stop-color="#0b3b4b"/><stop offset="1" stop-color="#50d7e2"/></linearGradient></defs><g id="Camada_1-2"><circle id="Elipse_21" class="cls-2" cx="44.36" cy="44.89" r="42.5"/><path id="Caminho_21" class="cls-1" d="m38.51,59.06h11.5v10.1h-11.5v-10.1Zm.02-2.99v-1.11c.03-3.25.5-5.56,1.44-7.08.9-1.45,2.68-3.17,5.42-5.27,1.3-1.05,2.43-2.3,3.35-3.69.78-1.24,1.19-2.67,1.16-4.14.09-1.38-.34-2.75-1.21-3.83-.96-.92-2.28-1.39-3.61-1.28-1.19-.05-2.37.34-3.29,1.1-.89.86-1.34,2.06-1.24,3.29v1.09h-11.47v-1.11c.06-4.55,1.59-8.04,4.56-10.38,2.9-2.28,6.75-3.43,11.45-3.43,5.09,0,9.1,1.28,11.94,3.81,2.87,2.56,4.32,6.14,4.32,10.64.02,2.88-.86,5.7-2.5,8.06-1.66,2.39-3.77,4.43-6.22,6-.93.62-1.68,1.48-2.17,2.48-.38,1.21-.55,2.48-.49,3.74v1.1h-11.41Z"/><circle class="cls-3" cx="42.81" cy="42.81" r="42.31"/></g></svg>