<?xml version="1.0" encoding="UTF-8"?><svg id="Camada_2" xmlns="http://www.w3.org/2000/svg" xmlns:xlink="http://www.w3.org/1999/xlink" viewBox="0 0 87.46 87"><defs><style>.cls-1{fill:#fff;}.cls-2{fill:url(#Gradiente_sem_nome_42);}.cls-3{fill:none;stroke:#1e8bb0;}</style><linearGradient id="Gradiente_sem_nome_42" x1="-517.09" y1="281.51" x2="-517.91" y2="281.48" gradientTransform="translate(64749.13 35230.34) scale(125 -125)" gradientUnits="userSpaceOnUse"><stop offset="0" stop-color="#0b3b4b"/><stop offset="1" stop-color="#50d7e2"/></linearGradient></defs><g id="Camada_1-2"><circle id="Elipse_21" class="cls-2" cx="44.96" cy="44.5" r="42.5"/><g id="Grupo_272"><path id="Subtração_21" class="cls-1" d="m54.22,21.05h-24.68v22.49l3.98,5.11h20.3v.99h-19.53l2.31,2.96h20.53v.99h-19.76l2.31,2.96h9.57v.99h-8.79l3.84,4.92h16.78V28.88h-7.79v-7.79l7.79,7.79v-.93l-6.86-6.9Zm-20.73,3.94h7.88v.99h-7.88v-.99Zm0,3.94h13.8v.99h-13.8v-.99Zm0,3.94h13.8v.99h-13.8v-.99Zm20.34,12.81h-20.34v-.99h20.34v.99Zm0-3.94h-20.34v-.99h20.34v.99Zm3.31-4.93v.99h-23.65v-.99h23.65Z"/><rect class="cls-1" x="30.57" y="43.58" width="2.51" height="25.46" transform="translate(-27.96 31.64) rotate(-38.1)"/><rect class="cls-1" x="33.3" y="41.44" width="2.51" height="25.46" transform="translate(-26.06 32.86) rotate(-38.1)"/><path class="cls-1" d="m23.01,41.91h1.75c1.18,0,2.15.96,2.15,2.15v.84h-5.98v-.91c0-1.15.93-2.08,2.08-2.08Z" transform="translate(-21.69 24) rotate(-38.1)"/><polygon class="cls-1" points="45.66 71.14 39.33 67.91 44.04 64.22 45.66 71.14"/></g><circle class="cls-3" cx="42.81" cy="42.81" r="42.31"/></g></svg>